<svg width="720" height="540" viewBox="0 0 720 540" fill="none" xmlns="http://www.w3.org/2000/svg">
  <rect width="720" height="540" rx="28" fill="#09101D"/>
  <rect x="24" y="24" width="672" height="492" rx="24" fill="url(#paint0_linear)"/>
  <rect x="52" y="56" width="204" height="20" rx="10" fill="rgba(255,255,255,0.18)"/>
  <rect x="52" y="112" width="616" height="220" rx="28" fill="rgba(255,255,255,0.05)" stroke="rgba(255,255,255,0.08)"/>
  <circle cx="230" cy="222" r="92" fill="rgba(56,189,248,0.1)"/>
  <circle cx="230" cy="222" r="58" fill="rgba(139,92,246,0.14)"/>
  <rect x="366" y="154" width="244" height="18" rx="9" fill="rgba(255,255,255,0.18)"/>
  <rect x="366" y="194" width="214" height="14" rx="7" fill="rgba(255,255,255,0.08)"/>
  <rect x="366" y="226" width="228" height="14" rx="7" fill="rgba(255,255,255,0.08)"/>
  <rect x="366" y="258" width="188" height="14" rx="7" fill="rgba(255,255,255,0.08)"/>
  <rect x="52" y="360" width="292" height="126" rx="26" fill="rgba(56,189,248,0.08)" stroke="rgba(56,189,248,0.18)"/>
  <rect x="376" y="360" width="292" height="126" rx="26" fill="rgba(192,132,252,0.08)" stroke="rgba(192,132,252,0.18)"/>
  <text x="52" y="509" fill="#E8F1FF" font-size="28" font-family="Arial, sans-serif" font-weight="700">Edge Vision Lab</text>
  <defs>
    <linearGradient id="paint0_linear" x1="360" y1="24" x2="360" y2="516" gradientUnits="userSpaceOnUse">
      <stop stop-color="#10192E"/>
      <stop offset="1" stop-color="#09111F"/>
    </linearGradient>
  </defs>
</svg>
