<svg width="960" height="720" viewBox="0 0 960 720" fill="none" xmlns="http://www.w3.org/2000/svg">
  <rect width="960" height="720" rx="36" fill="#080D18"/>
  <rect x="28" y="28" width="904" height="664" rx="30" fill="url(#paint0_linear)" stroke="rgba(255,255,255,0.08)"/>
  <rect x="62" y="72" width="836" height="60" rx="18" fill="rgba(255,255,255,0.05)"/>
  <rect x="86" y="92" width="176" height="20" rx="10" fill="rgba(255,255,255,0.18)"/>
  <rect x="704" y="92" width="64" height="20" rx="10" fill="#38BDF8" fill-opacity="0.45"/>
  <rect x="782" y="92" width="88" height="20" rx="10" fill="rgba(255,255,255,0.12)"/>
  <rect x="62" y="160" width="276" height="474" rx="28" fill="rgba(10,15,28,0.82)" stroke="rgba(255,255,255,0.06)"/>
  <rect x="368" y="160" width="530" height="220" rx="28" fill="url(#paint1_linear)"/>
  <rect x="392" y="194" width="200" height="18" rx="9" fill="rgba(255,255,255,0.18)"/>
  <rect x="392" y="230" width="286" height="16" rx="8" fill="rgba(255,255,255,0.08)"/>
  <rect x="392" y="264" width="248" height="16" rx="8" fill="rgba(255,255,255,0.08)"/>
  <rect x="702" y="196" width="168" height="148" rx="24" fill="rgba(10,15,28,0.38)" stroke="rgba(255,255,255,0.1)"/>
  <circle cx="786" cy="270" r="38" fill="url(#paint2_radial)"/>
  <rect x="368" y="408" width="254" height="226" rx="28" fill="rgba(255,255,255,0.05)" stroke="rgba(255,255,255,0.06)"/>
  <rect x="644" y="408" width="254" height="226" rx="28" fill="rgba(255,255,255,0.05)" stroke="rgba(255,255,255,0.06)"/>
  <rect x="92" y="198" width="154" height="14" rx="7" fill="rgba(255,255,255,0.18)"/>
  <rect x="92" y="238" width="206" height="12" rx="6" fill="rgba(255,255,255,0.08)"/>
  <rect x="92" y="272" width="176" height="12" rx="6" fill="rgba(255,255,255,0.08)"/>
  <rect x="92" y="334" width="216" height="120" rx="24" fill="rgba(56,189,248,0.08)" stroke="rgba(56,189,248,0.18)"/>
  <rect x="92" y="486" width="216" height="120" rx="24" fill="rgba(192,132,252,0.08)" stroke="rgba(192,132,252,0.18)"/>
  <text x="92" y="652" fill="#E8F1FF" font-size="34" font-family="Arial, sans-serif" font-weight="700">Ethara Workspace</text>
  <text x="92" y="680" fill="#A9B4CF" font-size="16" font-family="Arial, sans-serif">Collaboration platform concept</text>
  <defs>
    <linearGradient id="paint0_linear" x1="480" y1="28" x2="480" y2="692" gradientUnits="userSpaceOnUse">
      <stop stop-color="#0E1529"/>
      <stop offset="1" stop-color="#0A0F1E"/>
    </linearGradient>
    <linearGradient id="paint1_linear" x1="633" y1="160" x2="633" y2="380" gradientUnits="userSpaceOnUse">
      <stop stop-color="#0F1B35"/>
      <stop offset="1" stop-color="#0A1429"/>
    </linearGradient>
    <radialGradient id="paint2_radial" cx="0" cy="0" r="1" gradientUnits="userSpaceOnUse" gradientTransform="translate(786 270) rotate(90) scale(38)">
      <stop stop-color="#7DD3FC"/>
      <stop offset="1" stop-color="#8B5CF6"/>
    </radialGradient>
  </defs>
</svg>
