<svg width="720" height="540" viewBox="0 0 720 540" fill="none" xmlns="http://www.w3.org/2000/svg">
  <rect width="720" height="540" rx="28" fill="#09101C"/>
  <rect x="26" y="26" width="668" height="488" rx="24" fill="url(#paint0_linear)"/>
  <rect x="54" y="58" width="220" height="20" rx="10" fill="rgba(255,255,255,0.18)"/>
  <rect x="54" y="112" width="278" height="340" rx="24" fill="rgba(255,255,255,0.05)" stroke="rgba(255,255,255,0.08)"/>
  <rect x="358" y="112" width="308" height="340" rx="24" fill="rgba(125,211,252,0.08)" stroke="rgba(125,211,252,0.18)"/>
  <rect x="82" y="146" width="188" height="16" rx="8" fill="rgba(255,255,255,0.12)"/>
  <rect x="82" y="180" width="164" height="12" rx="6" fill="rgba(255,255,255,0.08)"/>
  <rect x="82" y="208" width="188" height="12" rx="6" fill="rgba(255,255,255,0.08)"/>
  <rect x="82" y="236" width="146" height="12" rx="6" fill="rgba(255,255,255,0.08)"/>
  <circle cx="512" cy="218" r="68" fill="url(#paint1_radial)"/>
  <rect x="408" y="326" width="210" height="56" rx="18" fill="rgba(255,255,255,0.09)"/>
  <rect x="408" y="398" width="154" height="18" rx="9" fill="rgba(255,255,255,0.1)"/>
  <text x="54" y="498" fill="#E8F1FF" font-size="28" font-family="Arial, sans-serif" font-weight="700">Neural Notes</text>
  <defs>
    <linearGradient id="paint0_linear" x1="360" y1="26" x2="360" y2="514" gradientUnits="userSpaceOnUse">
      <stop stop-color="#10192E"/>
      <stop offset="1" stop-color="#09101E"/>
    </linearGradient>
    <radialGradient id="paint1_radial" cx="0" cy="0" r="1" gradientUnits="userSpaceOnUse" gradientTransform="translate(512 218) rotate(90) scale(68)">
      <stop stop-color="#C084FC"/>
      <stop offset="1" stop-color="#38BDF8"/>
    </radialGradient>
  </defs>
</svg>
