<svg width="720" height="540" viewBox="0 0 720 540" fill="none" xmlns="http://www.w3.org/2000/svg">
  <rect width="720" height="540" rx="28" fill="#09101D"/>
  <rect x="24" y="24" width="672" height="492" rx="24" fill="url(#paint0_linear)"/>
  <rect x="48" y="54" width="180" height="18" rx="9" fill="rgba(255,255,255,0.18)"/>
  <rect x="48" y="100" width="624" height="152" rx="26" fill="rgba(255,255,255,0.05)" stroke="rgba(255,255,255,0.08)"/>
  <path d="M88 206C128 164 172 198 214 152C258 104 316 122 360 164C404 206 452 192 496 152C540 112 586 138 632 94" stroke="url(#paint1_linear)" stroke-width="8" stroke-linecap="round"/>
  <rect x="48" y="282" width="200" height="204" rx="24" fill="rgba(56,189,248,0.08)" stroke="rgba(56,189,248,0.18)"/>
  <rect x="272" y="282" width="184" height="204" rx="24" fill="rgba(255,255,255,0.05)" stroke="rgba(255,255,255,0.08)"/>
  <rect x="480" y="282" width="192" height="204" rx="24" fill="rgba(192,132,252,0.08)" stroke="rgba(192,132,252,0.18)"/>
  <text x="48" y="510" fill="#E8F1FF" font-size="28" font-family="Arial, sans-serif" font-weight="700">Signal Stack</text>
  <defs>
    <linearGradient id="paint0_linear" x1="360" y1="24" x2="360" y2="516" gradientUnits="userSpaceOnUse">
      <stop stop-color="#10192F"/>
      <stop offset="1" stop-color="#0A1221"/>
    </linearGradient>
    <linearGradient id="paint1_linear" x1="88" y1="150" x2="632" y2="150" gradientUnits="userSpaceOnUse">
      <stop stop-color="#38BDF8"/>
      <stop offset="1" stop-color="#C084FC"/>
    </linearGradient>
  </defs>
</svg>
